<svg xmlns="http://www.w3.org/2000/svg" xmlns:xlink="http://www.w3.org/1999/xlink" width="223.944" height="53.538" viewBox="0 0 223.944 53.538">
  <defs>
    <clipPath id="clip-path">
      <rect id="Rectángulo_156" data-name="Rectángulo 156" width="223.944" height="53.538" transform="translate(0 0)" fill="none"/>
    </clipPath>
  </defs>
  <g id="Grupo_405" data-name="Grupo 405" transform="translate(0 0)">
    <g id="Grupo_404" data-name="Grupo 404" clip-path="url(#clip-path)">
      <path id="Trazado_278" data-name="Trazado 278" d="M38.986,33.543c4.778,0,8.651,3.159,8.651,7.057s-3.873,7.057-8.651,7.057c-3.656,0-6.776-1.853-8.042-4.468a13.076,13.076,0,0,1-3.528,6.353,16.458,16.458,0,0,0,10.955,4c8.377,0,15.168-5.793,15.168-12.938S46.748,27.662,38.371,27.662a16.458,16.458,0,0,0-10.955,4,13.076,13.076,0,0,1,3.528,6.353c1.266-2.615,4.386-4.468,8.042-4.468" fill="#dd0034"/>
      <path id="Trazado_279" data-name="Trazado 279" d="M14.553,47.657C9.775,47.657,5.9,44.5,5.9,40.6s3.873-7.057,8.651-7.057c3.655,0,6.774,1.852,8.041,4.466a13.075,13.075,0,0,1,3.529-6.352,16.463,16.463,0,0,0-10.955-3.995C6.791,27.662,0,33.455,0,40.6S6.791,53.538,15.168,53.538a16.463,16.463,0,0,0,10.955-3.995,13.075,13.075,0,0,1-3.529-6.352c-1.267,2.614-4.386,4.466-8.041,4.466" fill="#dd0034"/>
      <path id="Trazado_280" data-name="Trazado 280" d="M38.986,5.881c4.778,0,8.651,3.159,8.651,7.057S43.764,20,38.986,20c-3.656,0-6.776-1.853-8.042-4.468a13.076,13.076,0,0,1-3.528,6.353,16.458,16.458,0,0,0,10.955,4c8.377,0,15.168-5.793,15.168-12.938S46.748,0,38.371,0A16.458,16.458,0,0,0,27.416,4a13.076,13.076,0,0,1,3.528,6.353c1.266-2.615,4.386-4.468,8.042-4.468" fill="#dd0034"/>
      <path id="Trazado_281" data-name="Trazado 281" d="M14.553,20C9.775,20,5.9,16.835,5.9,12.938s3.873-7.057,8.651-7.057c3.655,0,6.774,1.852,8.041,4.465a13.076,13.076,0,0,1,3.529-6.351A16.463,16.463,0,0,0,15.168,0C6.791,0,0,5.793,0,12.938S6.791,25.876,15.168,25.876a16.463,16.463,0,0,0,10.955-3.995,13.075,13.075,0,0,1-3.529-6.352C21.327,18.143,18.208,20,14.553,20" fill="#dd0034"/>
      <path id="Trazado_282" data-name="Trazado 282" d="M69.994,1.22a11.84,11.84,0,0,1,5.9,1.483,10.773,10.773,0,0,1,4.142,4.085,11.429,11.429,0,0,1,1.5,5.809,11.478,11.478,0,0,1-1.5,5.818,10.759,10.759,0,0,1-4.142,4.093,11.85,11.85,0,0,1-5.9,1.482H61.212V1.22Zm-.032,19.934A8.177,8.177,0,0,0,76,18.7,8.319,8.319,0,0,0,78.438,12.6a8.718,8.718,0,0,0-1.1-4.359,8,8,0,0,0-3.046-3.07,8.552,8.552,0,0,0-4.326-1.112H64.241v17.1Z"/>
      <path id="Trazado_283" data-name="Trazado 283" d="M98.76,7.167H101.6V23.991H98.76v-3.03a7.643,7.643,0,0,1-2.78,2.522,7.846,7.846,0,0,1-3.763.911,8.246,8.246,0,0,1-4.3-1.153,8.071,8.071,0,0,1-3.022-3.174,9.325,9.325,0,0,1-1.088-4.488,9.322,9.322,0,0,1,1.088-4.488,8.074,8.074,0,0,1,3.022-3.175,8.245,8.245,0,0,1,4.3-1.152,7.846,7.846,0,0,1,3.763.911A7.634,7.634,0,0,1,98.76,10.2ZM92.749,21.654a5.785,5.785,0,0,0,4.295-1.74,5.928,5.928,0,0,0,1.716-4.335,5.927,5.927,0,0,0-1.716-4.335,6.2,6.2,0,0,0-8.614,0,5.914,5.914,0,0,0-1.724,4.335,5.915,5.915,0,0,0,1.724,4.335,5.832,5.832,0,0,0,4.319,1.74"/>
      <path id="Trazado_284" data-name="Trazado 284" d="M115.455,9.729h-5.06v9.314q0,2.612,2.707,2.611a4.956,4.956,0,0,0,2.353-.629V23.7a6.073,6.073,0,0,1-2.949.693,4.963,4.963,0,0,1-3.69-1.273,4.94,4.94,0,0,1-1.257-3.625V9.729h-3.03V7.167h3.03V2.639h2.836V7.167h5.06Z"/>
      <path id="Trazado_285" data-name="Trazado 285" d="M131.682,7.167h2.837V23.991h-2.837v-3.03a7.635,7.635,0,0,1-2.78,2.522,7.839,7.839,0,0,1-3.762.911,8.243,8.243,0,0,1-4.3-1.153,8.064,8.064,0,0,1-3.022-3.174,9.325,9.325,0,0,1-1.088-4.488,9.322,9.322,0,0,1,1.088-4.488,8.067,8.067,0,0,1,3.022-3.175,8.243,8.243,0,0,1,4.3-1.152,7.839,7.839,0,0,1,3.762.911,7.626,7.626,0,0,1,2.78,2.522Zm-6.01,14.487a5.787,5.787,0,0,0,4.295-1.74,5.928,5.928,0,0,0,1.715-4.335,5.926,5.926,0,0,0-1.715-4.335,6.2,6.2,0,0,0-8.614,0,5.91,5.91,0,0,0-1.724,4.335,5.911,5.911,0,0,0,1.724,4.335,5.83,5.83,0,0,0,4.319,1.74"/>
      <path id="Trazado_286" data-name="Trazado 286" d="M153.81,24.394a13.032,13.032,0,0,1-4.947-.975,11.4,11.4,0,0,1-4-2.635l1.612-2.272a9.978,9.978,0,0,0,3.287,2.3,9.814,9.814,0,0,0,4.045.879,6.615,6.615,0,0,0,3.819-1.056,3.145,3.145,0,0,0,1.547-2.683,2.562,2.562,0,0,0-.145-.862,3.721,3.721,0,0,0-.338-.725,2.368,2.368,0,0,0-.58-.613q-.387-.3-.669-.491a4.386,4.386,0,0,0-.83-.411q-.548-.217-.83-.322t-.9-.274q-.621-.169-.814-.218t-.79-.177a19.339,19.339,0,0,1-2.28-.62,12.779,12.779,0,0,1-2.079-.935,8.183,8.183,0,0,1-1.74-1.273,5.4,5.4,0,0,1-1.587-3.859,5.539,5.539,0,0,1,2.264-4.593A9.253,9.253,0,0,1,153.7.818a11.626,11.626,0,0,1,4.311.774,8.524,8.524,0,0,1,3.182,2.094l-1.45,2.257a7.147,7.147,0,0,0-2.586-1.724,8.93,8.93,0,0,0-3.489-.694,6.055,6.055,0,0,0-3.569.992,2.989,2.989,0,0,0-1.411,2.538q0,2.8,5.447,3.932.6.112,1.153.257t1.418.436a13.581,13.581,0,0,1,1.579.636,10.169,10.169,0,0,1,1.482.894,7.009,7.009,0,0,1,1.3,1.185,5.452,5.452,0,0,1,.878,1.523,5.172,5.172,0,0,1,.346,1.9,5.694,5.694,0,0,1-2.425,4.73,9.705,9.705,0,0,1-6.051,1.845"/>
      <path id="Trazado_287" data-name="Trazado 287" d="M174.438,9.729h-5.06v9.314q0,2.612,2.707,2.611a4.956,4.956,0,0,0,2.353-.629V23.7a6.073,6.073,0,0,1-2.949.693,4.963,4.963,0,0,1-3.69-1.273,4.936,4.936,0,0,1-1.257-3.625V9.729h-3.03V7.167h3.03V2.639h2.836V7.167h5.06Z"/>
      <path id="Trazado_288" data-name="Trazado 288" d="M184.623,24.394a9.226,9.226,0,0,1-4.577-1.153,8.38,8.38,0,0,1-3.231-3.174,8.809,8.809,0,0,1-1.168-4.488,8.807,8.807,0,0,1,1.168-4.488,8.383,8.383,0,0,1,3.231-3.175,9.226,9.226,0,0,1,4.577-1.152A8.728,8.728,0,0,1,191,9.294a8.467,8.467,0,0,1,2.57,6.285A8.467,8.467,0,0,1,191,21.864a8.728,8.728,0,0,1-6.373,2.53m0-2.74a5.783,5.783,0,0,0,4.294-1.74,5.924,5.924,0,0,0,1.716-4.335,5.923,5.923,0,0,0-1.716-4.335,6.2,6.2,0,0,0-8.613,0,5.91,5.91,0,0,0-1.724,4.335,5.911,5.911,0,0,0,1.724,4.335,5.83,5.83,0,0,0,4.319,1.74"/>
      <path id="Trazado_289" data-name="Trazado 289" d="M205.2,6.893h.564V9.826H205.2a5.638,5.638,0,0,0-4.2,1.555,5.707,5.707,0,0,0-1.539,4.2v8.412h-2.836V7.167h2.836v2.9A6.366,6.366,0,0,1,205.2,6.893"/>
      <path id="Trazado_290" data-name="Trazado 290" d="M223.943,15.579q0,.241-.08,1.257H209.375a5.921,5.921,0,0,0,2.119,3.586,6.338,6.338,0,0,0,4.118,1.361,7.256,7.256,0,0,0,3.319-.765,6.306,6.306,0,0,0,2.369-1.974l1.95,1.676a8.86,8.86,0,0,1-3.3,2.691,10.022,10.022,0,0,1-4.439.983,9.071,9.071,0,0,1-6.575-2.546,8.461,8.461,0,0,1-2.627-6.333,8.79,8.79,0,0,1,1.153-4.456,8.3,8.3,0,0,1,3.182-3.15,9.033,9.033,0,0,1,4.512-1.144,8.9,8.9,0,0,1,4.48,1.144,8.242,8.242,0,0,1,3.159,3.166,9,9,0,0,1,1.144,4.5m-8.815-6.2a5.645,5.645,0,0,0-3.787,1.362,5.9,5.9,0,0,0-2,3.521h11.586a5.848,5.848,0,0,0-2-3.537,5.707,5.707,0,0,0-3.8-1.346"/>
      <path id="Trazado_291" data-name="Trazado 291" d="M71.7,52.481a12.416,12.416,0,0,1-4.753-.911,11.734,11.734,0,0,1-3.82-2.473,11.341,11.341,0,0,1-2.514-3.747,12.312,12.312,0,0,1,0-9.33,11.341,11.341,0,0,1,2.514-3.747,11.634,11.634,0,0,1,3.82-2.465,12.964,12.964,0,0,1,10.554.467,11.206,11.206,0,0,1,4.239,3.755L77.81,36.463a7.015,7.015,0,0,0-2.6-2.321A7.445,7.445,0,0,0,71.7,33.3a7.083,7.083,0,0,0-5.229,2.112,7.663,7.663,0,0,0,0,10.547A7.073,7.073,0,0,0,71.7,48.082a7.445,7.445,0,0,0,3.513-.838,7.007,7.007,0,0,0,2.6-2.321l3.932,2.434A11.2,11.2,0,0,1,77.5,51.111a12.4,12.4,0,0,1-5.8,1.37"/>
      <path id="Trazado_292" data-name="Trazado 292" d="M94.554,52.481A12.425,12.425,0,0,1,89.8,51.57,11.74,11.74,0,0,1,85.981,49.1a11.325,11.325,0,0,1-2.514-3.747,12.3,12.3,0,0,1,0-9.33,11.325,11.325,0,0,1,2.514-3.747A11.64,11.64,0,0,1,89.8,29.808a12.966,12.966,0,0,1,10.555.467,11.206,11.206,0,0,1,4.239,3.755l-3.932,2.433a7.023,7.023,0,0,0-2.6-2.321,7.445,7.445,0,0,0-3.513-.838,7.087,7.087,0,0,0-5.23,2.112,7.666,7.666,0,0,0,0,10.547,7.077,7.077,0,0,0,5.23,2.119,7.445,7.445,0,0,0,3.513-.838,7.014,7.014,0,0,0,2.6-2.321l3.932,2.434a11.2,11.2,0,0,1-4.239,3.754,12.405,12.405,0,0,1-5.8,1.37"/>
      <path id="Trazado_293" data-name="Trazado 293" d="M121.111,39.992a5.3,5.3,0,0,1,2.707,2.24,6.7,6.7,0,0,1,1.048,3.674,5.864,5.864,0,0,1-1.822,4.432,6.36,6.36,0,0,1-4.576,1.74H107.01V29.308h10.7a6.024,6.024,0,0,1,4.3,1.644,5.469,5.469,0,0,1,1.741,4.157,5.831,5.831,0,0,1-.742,2.9,5.052,5.052,0,0,1-1.9,1.982M116.582,33.4h-5.14v5.012h5.14a2.489,2.489,0,0,0,2.482-2.514,2.431,2.431,0,0,0-.709-1.781,2.393,2.393,0,0,0-1.773-.717m.758,14.584a2.744,2.744,0,0,0,2.03-.83,2.785,2.785,0,0,0,.822-2.038,2.807,2.807,0,0,0-2.852-2.837h-5.9v5.705Z"/>
    </g>
  </g>
</svg>
